<?xml version="1.0" encoding="UTF-8"?>
<svg id="Layer_1" xmlns="http://www.w3.org/2000/svg" version="1.1" viewBox="0 0 560 288">
  <!-- Generator: Adobe Illustrator 29.4.0, SVG Export Plug-In . SVG Version: 2.1.0 Build 152)  -->
  <defs>
    <style>
      .st0 {
        fill: #6b6564;
      }

      .st1 {
        fill: #d7ac9c;
      }

      .st2 {
        fill: #e2baa1;
      }

      .st3 {
        fill: #736a67;
      }

      .st4 {
        fill: #6b6463;
      }

      .st5 {
        fill: #deb89f;
      }

      .st6 {
        fill: #847e7a;
      }

      .st7 {
        fill: #e2baa0;
      }

      .st8 {
        fill: #dfb89f;
      }
    </style>
  </defs>
  <path class="st7" d="M364.6,212.2c-6.5,3.3-13.3,5.7-20.3,7.7-5.8,1.6-22,6-27.1,5.5-6.9-.7-11.8-12.8-5.1-17.7l-28.5,2.3c8.9-7.4,31-13.9,41.9-9.4,3,1.3,5.8,4.6,8.7,6.2,9.8,5.4,19.4,6,30.5,5.5Z"/>
  <path class="st2" d="M263.1,223.7c-9.4,3.4-19,6.1-28.7,8.4-5.5,1.3-23.4,6-27.7,5.4s-8.5-7.5-7.3-11.8c1-3.5,13.2-9.3,16.9-11.1,12.6,10.2,31.4,9.1,46.8,9.1Z"/>
  <path class="st2" d="M201.4,212.2c-.5.2-1.6,1.5-3,2-9.8,3.4-33.4,15.6-38.3,1.1-3.1-9.1,7.8-12.8,14-16.8,7.4,7.6,17.6,10.8,27.4,13.7Z"/>
  <g>
    <path class="st6" d="M174.1,198.5c4.2-2.7,16.9-9.1,19.4-12,3.9-4.6,1.9-28.2,2.2-35.4.7-14.7,2.3-29.6,2.3-44.5-2.8-5.4-11.6-11.6-11.3-18.2.2-5.4,11.4-18.3,16.2-20.4,5.9-2.6,9,1.4,11.2.9s3.2-2.5,4.8-3.1c9.4-3.8,19.2-5.2,29.1-2.4,2.9.8,10.4,5.7,11.1,5.7,1,0,2.9-1.7,4.7-1.9,6.5-.7,21.5,13.7,22.1,20.1.9,9.3-12.6,16.8-13.5,20.7-.2,1,1.3,13,2.1,13.5,26.3,8.6,58.9,4.4,83.8,15.5,2.7,1.2,7.8,5.4,9.4,5.6,7.3,1,18.5-7.7,21.7,6.7,2.6,11.9-9.1,14.1-9.8,16.9-1.3,5.5,1.3,14.3,1.2,20.4-.2,14-4.1,19.6-16,25.7-14.6,5.4-28.7-.3-40-9.6-13.5-1.9-27.2.5-41,7.3-9.6,8-6.9,8.7-20.5,13.7-9.2,3.8-40.8,1.9-46.3-5.9s-.6-2.2-.5-3.3c3.1-1.5,8.4-2.1,10.3-5.7-9.2-.9-16.6.5-25.1,3.4-5.8,2.7-24.4-5.9-27.2-10.4-.6-.9-.4-2.2-.1-3.3Z"/>
    <g>
      <path class="st7" d="M257,195.9c-6.5,6.4-32,2.8-16.6-10.4,2.5-2.1,12.2-7.5,15.2-7.2,7.6.8,5.8,13.3,1.5,17.6Z"/>
      <path class="st7" d="M208,172.4c8.5-2.3,31.6,26.3,4.6,21.2-11.3-2.1-11.5-19.4-4.6-21.2Z"/>
      <path class="st0" d="M212.9,74.1v20c0,2.9-5.8,16.2-9.7,15.4-4.3-.9,1.7-6.5,2.3-7.9.6-1.2,2.8-6.8,2.8-7.5v-20c0-.2,3.7.2,4.6,0Z"/>
      <path class="st0" d="M263.1,74.1v20c0,1,2.5,6.7,3.2,8.2.4.8,7.2,8.6.8,7.2s-8.6-13.3-8.6-16.5v-18.8c0-.2,3.7.2,4.6,0Z"/>
      <path class="st4" d="M330.4,190.5c-.7.7-4.3-.4-4.6-1.7-1.2-6,15.3-21.3,22.8-17.1,3.9,2.2-7.3,5-8.3,5.5-4.5,2.4-6.7,4.7-9.1,9.2-.7,1.4-.8,4.1-.9,4.2Z"/>
      <path class="st5" d="M221.1,89.8c-4.4-4.5,2.3-10.7,7.2-6.6,4.2,3.6-3.3,10.5-7.2,6.6Z"/>
      <path class="st8" d="M250.2,89.8c-3.9,4-11.3-3-7.2-6.6s11.5,2.1,7.2,6.6Z"/>
      <path class="st0" d="M254.9,95.9c2.6,4.2-3.3,9.7-6.2,5.6-3.1-4.4,4.1-8.9,6.2-5.6Z"/>
      <path class="st0" d="M216.3,102.6c0-1.8-.5-5.2,1.1-6.4,5.9-4.2,10,8.6-1.1,6.4Z"/>
      <g>
        <path class="st7" d="M234.3,101.7c6.8-.2,21.3,2.5,23.6,9.9,4,12.9-7.7,22-19.5,22.9-28.8,2.3-37.6-31.8-4.2-32.8Z"/>
        <path class="st1" d="M235.3,115.3c7.1-1.9,10.9,15.4.8,15.9s-7.9-14-.8-15.9Z"/>
        <path class="st3" d="M232.6,112.6c-4-4.1,1.5-10.4,6.1-6.7,5.2,4.2-2.3,10.5-6.1,6.7Z"/>
      </g>
    </g>
  </g>
</svg>