<?xml version="1.0" encoding="UTF-8"?>
<svg id="Layer_1" xmlns="http://www.w3.org/2000/svg" version="1.1" viewBox="0 0 560 288">
  <!-- Generator: Adobe Illustrator 29.4.0, SVG Export Plug-In . SVG Version: 2.1.0 Build 152)  -->
  <defs>
    <style>
      .st0 {
        fill: #d8ad9e;
      }

      .st1 {
        fill: #e3bba1;
      }

      .st2 {
        fill: #ebe5df;
      }

      .st3 {
        fill: #826d64;
      }

      .st4 {
        fill: #d8ad9d;
      }

      .st5 {
        fill: #ebe6e0;
      }

      .st6 {
        fill: #7e685f;
      }

      .st7 {
        fill: #d8ac9d;
      }

      .st8 {
        fill: #d9ad9d;
      }

      .st9 {
        fill: #856e64;
      }

      .st10 {
        fill: #ebe5de;
      }
    </style>
  </defs>
  <g>
    <path class="st1" d="M237.4,102.2c11.7,7.3,16,17.5,10.2,30.6,8.6.6,16.9-1.5,25.5-1,5.3-2.3,7.8-1.9,11,3.3l5.2,13.5c6,24.6,13.8,47.1,28.5,67.6.2,1.9,0,4.1-.7,6.5,0,4.7-.6,10.5-1,15.3l-1.2,2.3c-5.2,2-22.2,4.3-24.3-2.3-.6-5.7-1.1-11.6-1-17.4h-40.8c0,6.1,0,12.3,0,18.4-.9,5.1-7.8,6.8-12.4,7.7s-11.4,2-13.1-2.6c-.8,0-1.9,0-2,0-3.3,4.6-23.7-1-24.9-4.2l.4-5c1.7-8.9,6-24,6.2-32.2,0-6.9-5.8-19.6-6.1-28.5-.2-4.8,3.1-16.4,2.9-17.2-.2-.8-8.6-7.9-11.1-11.8-6.7-21,7.6-34.3,28.7-28.8,5.5,0,8.1-.1,5.5-6.1,1.6-2.2,4.8-3.4,9.3-3.4,1.7-2.3,3.6-3.8,5.4-4.6Z"/>
    <path class="st4" d="M225,143.9c.6-.4,1.1-5,4.2-3.5s-1,9.7,3.5,8.7,9.3-14.7,12.8-11.2c2.7,2.7-8.2,16.7-13.7,16.3-4.5-.3-5-4.4-5.9-4.9-1.4-.8-3.9.4-6.5-1.2-3.7-2.3-3.8-9.7-5.5-10.9-2.8-2-5.8,2.8-7.6,2.5-6.8-1.2,1.7-10,8.8-7.9,5.5,1.6,5,14.7,9.8,11.9Z"/>
    <path class="st8" d="M210.4,211.5c2.7-.6,9.8,15.7,10.3,18.3.7,3.7-2.7,4.1-4.7,1.6-1.6-1.9-9.7-19-5.5-20Z"/>
  </g>
  <path class="st5" d="M237.4,102.2c-2,7.3-6.3,7.7-13.3,7.2,7.9,14.1-15.9,7-22.9,8.2-10.9,1.8-14.3,18.3-12.8,27.5-18.2-29,18.6-61.9,49-42.9Z"/>
  <g>
    <path class="st1" d="M355.8,184.9c-.4,4.7-.5,9.6-1,14.3-1.3,10.8-3.2,23-5.1,33.7-1.5,5.1-6.8,6.2-11.6,6.7s-12.8.6-13.9-3.7c0-6.1,0-12.3,0-18.4,11-5.1,26.6-21.5,30.5-33.3l1.1.6Z"/>
    <g>
      <path class="st5" d="M355.8,161.4c.8,9.4.7,14.3,0,23.5-4.5,14.4-16.6,26-29.3,33.8l-2.3-1.1c-3.1,1.4-6-1.6-7.1,5.1-.2-8.3-7.2-14.4-11.4-21.8-12.3-21.6-13.1-39.4-21.4-60.3s-3.3-8.4-11.1-8.8c.8-1.3,3.2-.1,3-2.4-.5-6.6-3.5-10.7-3-19,3.1-7.9,14.3-7.1,21.1-4.4,7.8,4.6,15.8,7.1,24,7.4l.9,2.2c.6-1.3,1.8-1.3,3.5,0,1.2-1.2,2.4-1.5,3.6-1l-.2-2.2c4.7-3.2,9.5-4.8,14.5-4.9,1-.6,1.5-1.4,1.6-2.6,6.6-1.4,13.4-.8,19.8,1.2-.2-1.9-.2-3.2,2-3.7,1.6,10.8.5,22.1-3.6,32.7-1.3,3.5-6.4,10.4-6.6,12.9-.3,3.3,1.7,9.8,2,13.7Z"/>
      <path class="st0" d="M322.6,118.9c6.7,0,8.5,14.5,0,14.5-9.1,0-6.3-14.5,0-14.5Z"/>
    </g>
    <g>
      <path class="st1" d="M273.1,110.4c.5-10.2,7.7-19.6,8.1-24,.2-2.6-1.8-8-2-11.2-.4-6.1-.6-19.9,7.7-19.9,10.5,0,15.2,14.8,19.4,15.4s4.6-1.1,7.1-1.1c7.4-.1,14.9-.2,22.3.9,8-8.7,22.3-25.3,24.2-2.4.5,5.4-2.1,12.4-1.5,15.9.9,5,4.5,11,5.6,18.3v7.1c-5.9-3.7-17-4.3-23.5-2q-1.4-1.4,0,0c-2.1.7-11.7,5.7-14.3,7.1l-2.1-1c-1.3-3.3-3-2.7-5,2-2.5-.4-5.2.3-8.2-.5-13.2-3.2-23-15.2-37.7-4.6Z"/>
      <g>
        <path class="st3" d="M326.2,114.5c-.7.4-1.1,3-3.6,3.1-2,0-3.3-2-3.6-2-3.2-6.4,7.2-9.1,7.1-1Z"/>
        <path class="st7" d="M286.4,81.8c-.7-3.2-3.2-18.3,1.4-18.3,2.8,0,11.1,7.8,10.8,10.7-.2,2.1-10.5,9.2-12.3,7.6Z"/>
        <path class="st4" d="M353.7,79.7c-11.8-3.3-14.9-6.6-4.1-14.8,7.7-5.9,5.3,10.6,4.1,14.8Z"/>
        <path class="st10" d="M308.3,88.3c6.3.3,5.2,10.6-1.8,9.6-6.4-.9-4.4-9.9,1.8-9.6Z"/>
        <path class="st2" d="M327.9,88.1c8.7-2.9,10.4,10.5,2.1,8.9-4.8-.9-6.2-7.5-2.1-8.9Z"/>
        <path class="st9" d="M340.4,107.3c-4.9,2.3-8.1-6.4-2.4-6.8,5.4-.4,3.4,6.3,2.4,6.8Z"/>
        <path class="st6" d="M301.3,103.3c4.4-1.4,6,3.8,3.5,5.6-4.4,3.1-7.4-4.3-3.5-5.6Z"/>
      </g>
    </g>
  </g>
</svg>