<?xml version="1.0" encoding="UTF-8"?>
<svg id="Layer_1" xmlns="http://www.w3.org/2000/svg" version="1.1" viewBox="0 0 560 288">
  <!-- Generator: Adobe Illustrator 29.3.0, SVG Export Plug-In . SVG Version: 2.1.0 Build 146)  -->
  <defs>
    <style>
      .st0 {
        fill: #ee8034;
      }

      .st1 {
        fill: #fff;
      }

      .st2 {
        fill: #fbb03b;
      }
    </style>
  </defs>
  <path class="st2" d="M347.7,127.6c1.3,28.3-11.7,57.1-33.8,75-9.2,7.4-18.2,11.6-24.4,14-5.7-1.6-14.6-4.7-24-11-25.6-17.3-39.7-48.7-38.1-78.3.5-10.2,1.2-22.7,10.6-34.2,17.4-21.3,49.1-20,54-19.7,7.6.3,29.2,1.3,43.5,16.8,11,11.9,11.7,25.9,12.2,37.5Z"/>
  <path class="st1" d="M314.1,130.4c.8,17.8-12.7,31.5-26.5,31.4-15.1,0-25.6-16.6-25.6-30.9,0-14,10.1-30.7,25.6-30.7,13.8,0,27,13.1,26.5,30.2Z"/>
  <path class="st0" d="M251.2,203.8c-4.7,1.4-11.5,3.1-14.2,7.5s-.3,6.6,2.4,8.8,8.1,4.5,12.4,5.8,12.3,3.1,18.5,4c13.7,1.9,27.5,1.5,41.2-1s11.3-2.4,16.7-4.6,7.6-3.1,9.8-6.3c6.1-8.7-10.3-13.2-15.5-14.7s-5,4.5-1.5,5.5,8.6,2.2,11.7,4.8.5.6.8.8c-.3-.3,0,.5,0-.1,0,.6.4-.2,0,.4.2-.4-.1,0-.3.2-1.6,1.9-4.8,3.3-7.2,4.2-4.4,1.7-9.1,2.9-13.8,3.9-11,2.3-22.4,3-33.6,2.2-10.1-.8-20.7-2.5-30.1-6.3s-3.5-1.5-5-2.6-1.8-1.6-1.9-1.8-.2.3,0-.1c-.2.5.2-.2.3-.3.7-.8,1.7-1.3,2.7-1.8,2.5-1.3,5.3-2.2,8-3s2-6.5-1.5-5.5h0Z"/>
  <path class="st0" d="M263.5,233.5c-6.1-.7-11.9-2.8-17.1-6s-6,3-2.9,4.9c6.1,3.8,12.9,5.9,20,6.8,3.6.4,3.6-5.3,0-5.7h0Z"/>
  <path class="st0" d="M332.7,226.8c-16.5,7.5-34.7,10.4-52.7,9s-3.6,5.4,0,5.7c19,1.5,38.1-1.9,55.5-9.8,3.3-1.5.4-6.4-2.9-4.9h0Z"/>
  <g>
    <path class="st0" d="M318.8,70.3c7.1,6.3,27.4-2.3,29.1-13.3-4.9-35.6-45.4-11.2-29.1,13.3Z"/>
    <path class="st0" d="M251.7,72.7c23.2-18.5-10.5-53.8-24.4-20.7-1.1,11.2,15.9,24.1,24.4,20.7Z"/>
    <path class="st0" d="M286.2,67.4c2.3-.8,8.1-3,12.2-8.9,1.2-1.7,7.3-10.4,3.2-18.6-3.7-7.4-12.8-8.4-13.7-8.5-6.3-.5-14.4,2.2-17.3,9-3.2,7.5,1.9,15,3.7,17.6,4,5.8,9.4,8.4,11.9,9.4Z"/>
    <path class="st0" d="M353.7,133.2c-1.4,10.5-5.3,28.3-17.3,46.3-6.6,9.8-23.5,35.1-46.8,37.2-38.8,3.5-64.4-56-68.1-83.5-10.5-79.9,142.7-79.9,132.2,0ZM262,131c0,14.5,10.8,30.7,25.6,30.9,15.1.2,26.8-16.3,26.5-31.4-.3-14.4-11.5-30.4-26.5-30.2-15,.2-25.6,16.4-25.6,30.7Z"/>
  </g>
  <path class="st0" d="M324.5,189.6c1.9,7-12.4,18-19.9,22.4-7.2,4.2-14,5.8-18.4,6.5-4.7-.7-12.3-2.5-20.2-7.6-.8-.5-19.7-12.9-17.1-21.6,2.1-7.1,17.1-8.1,28.6-8.9,3.2-.2,43.7-2.7,47,9.2Z"/>
</svg>