<?xml version="1.0" encoding="UTF-8"?>
<svg id="Layer_1" xmlns="http://www.w3.org/2000/svg" version="1.1" viewBox="0 0 560 288">
  <!-- Generator: Adobe Illustrator 29.3.0, SVG Export Plug-In . SVG Version: 2.1.0 Build 146)  -->
  <defs>
    <style>
      .st0 {
        fill: #fff;
      }

      .st1 {
        fill: #fbb03b;
      }
    </style>
  </defs>
  <path class="st1" d="M62.6,153.2h24.3v23.7H19.8v-21.4l24.3-19.7h-23.4v-23.7h66.2v21.4s-24.3,19.7-24.3,19.7Z"/>
  <path class="st1" d="M161.8,148.3c5.7,41.2-77.4,41.2-71.7,0-5.7-41.2,77.4-41.2,71.7,0Z"/>
  <path class="st1" d="M235.6,148.3c5.7,41.2-77.4,41.2-71.7,0-5.7-41.2,77.4-41.2,71.7,0Z"/>
  <path class="st1" d="M343.1,140.9v36h-30.4c-2.1-3.8,5.7-42.6-6.1-35.5v35.5h-30.4c-2.1-3.8,5.7-42.5-6.1-35.5v35.5h-30.4v-57.3h29l.6,7.6h.2c5.6-11.8,31.5-13.5,35.4,0h.2c11.5-16,41.3-12.8,38,13.7h0Z"/>
  <path class="st1" d="M380.1,121.8c0,6.5-8.6,11.6-15.9,11.6s-15.9-5.1-15.9-11.6,8.6-11.6,15.9-11.6,15.9,5.1,15.9,11.6ZM379.6,176.9h-30.9v-43c8.2,3.7,22.8,3.7,30.9,0v43Z"/>
  <path class="st1" d="M448.9,140.3c0,3-.4,7-.8,8.5h-32.1c1.7,8.1,22.3,4.2,29.7,2.5l.9,25.1c-67.9,21.2-89.6-56.1-28.5-58.7,21.1,0,30.8,7.1,30.8,22.6h0ZM415.7,141.6h7.8c.8-10.4-8.5-10.4-7.8,0Z"/>
  <path class="st1" d="M507.9,117.6c-.1,6.6-.2,13.3-.4,19.9-1.7,0-4.6.1-8.1.1-8.8,0-13.3-.4-14.3,1.8-.2.4-.3,1,0,1.7,14.1,1.5,24.2,8.3,25.6,16.5,1,5.9-2.9,11-3.9,12.3-13.3,17.5-51.6,7.3-54.1,6.6.3-7.5.6-15.1.9-22.6,2.8,2.7,24,7.5,25.6.8-15.1.6-26.4-6.5-27.9-14.8-1.4-7.8,5.4-14.3,6.8-15.6.1,0,.2-.2.4-.4,2.9-2.5,8.1-5.7,20.5-7,8.1-.8,14.7-.4,23,.2,2.5.2,4.5.4,5.9.5Z"/>
  <path class="st1" d="M507.5,137.5c.8,0,1.9,0,3.2-.2,3.6-.4,9.1-1.1,13.8-4.8,5.2-4.1,6.7-9.8,7-11.3,1.8-7.8-1.5-14-2.8-16.3-4.7-8.8-13.6-13.5-14.9-12.4-1.1,1.1,4,6.1,4.1,15.1,0,3.9-.9,5.7-1.7,6.6-2.6,3.4-7.4,3.4-8.3,3.3-.1,6.6-.2,13.3-.4,19.9h0Z"/>
  <path class="st1" d="M511.7,103.8c.3.6.5,1.3.6,1.9s0,.2,0,.3c0,0,0-.2,0,0v1.8c0,.2,0,0,0,0v.3c0,.2,0,.4-.2.6s0,.3,0,.2,0,0,0,.2c0,.2-.2.4-.3.5s0,0-.1.2c0,0,0,0,0,0-.2.2-.4.5-.6.7-.5.5-.5,1.5,0,2s1.4.5,2,0c1.4-1.3,2.1-3,2.3-4.9s-.2-3.1-.8-4.5-.9-1.2-1.7-1-1.3,1-1,1.7h-.2Z"/>
  <path class="st1" d="M533.9,114.9v.3c0,.2,0-.3,0,0v2.7c0,1.6-.2,3.2-.6,4.8-.8,3.3-2.5,6.4-4.8,8.9s-.9,1-1.5,1.4-.4.4-.6.5-.2.2-.3.3c-.2.1.2-.2,0,0-.6.5-.9,1.2-.5,1.9s1.3,1,1.9.5c5.6-4.2,9-10.7,9.3-17.7s0-3-.3-4.5-1.1-1.2-1.7-1-1.1,1-1,1.7h0v.2Z"/>
  <path class="st1" d="M537.8,109.8c1.2,3.6,1.2,7.5,0,11.1s.3,1.5,1,1.7,1.5-.3,1.7-1c1.4-4.1,1.4-8.5,0-12.6s-1-1.2-1.7-1-1.2,1-1,1.7h0Z"/>
  <path class="st1" d="M78.4,117.4c-1.6-1.7-3.5-3-5.6-4.1s-1.1.6-.5.9c2,1,3.8,2.3,5.4,3.9s1.2-.2.7-.7h0Z"/>
  <g>
    <path class="st0" d="M133.2,143.7c1.7,1.5,6.4-.6,6.8-3.3-1.1-8.7-10.6-2.7-6.8,3.3Z"/>
    <path class="st0" d="M117.5,144.1c5.5-4.3-2.5-12.6-5.7-4.9-.3,2.6,3.7,5.6,5.7,4.9Z"/>
    <path class="st0" d="M126,140.7c.5-.2,1.9-.7,2.9-2.1.3-.4,1.7-2.4.8-4.4-.9-1.7-3-2-3.2-2-1.5-.1-3.4.5-4.1,2.1-.7,1.7.4,3.4.9,4.1.9,1.3,2.1,2,2.7,2.3Z"/>
    <path class="st0" d="M133.8,152c.1-.7.6-3.3-1.1-5.8-2.1-3.1-5.9-3.3-6.6-3.3s-5-.1-7.2,3.3c-1.6,2.4-1,5.1-.9,5.8.5,3.2,3.5,7.5,8.1,7.4,3.8-.1,7.2-3.2,7.7-7.4Z"/>
  </g>
  <g>
    <path class="st0" d="M208.4,143.8c1.7,1.5,6.4-.6,6.8-3.3-1.1-8.7-10.6-2.7-6.8,3.3Z"/>
    <path class="st0" d="M192.8,144.2c5.5-4.3-2.5-12.6-5.7-4.9-.3,2.6,3.7,5.6,5.7,4.9Z"/>
    <path class="st0" d="M201.2,140.8c.5-.2,1.9-.7,2.9-2.1.3-.4,1.7-2.4.8-4.4-.9-1.7-3-2-3.2-2-1.5-.1-3.4.5-4.1,2.1-.7,1.7.4,3.4.9,4.1.9,1.3,2.1,2,2.7,2.3Z"/>
    <path class="st0" d="M209,152.1c.1-.7.6-3.3-1.1-5.8-2.1-3.1-5.9-3.3-6.6-3.3s-5-.1-7.2,3.3c-1.6,2.4-1,5.1-.9,5.8.5,3.2,3.5,7.5,8.1,7.4,3.8-.1,7.2-3.2,7.7-7.4Z"/>
  </g>
</svg>