<?xml version="1.0" encoding="UTF-8"?>
<svg id="Layer_1" xmlns="http://www.w3.org/2000/svg" version="1.1" viewBox="0 0 560 288">
  <!-- Generator: Adobe Illustrator 29.4.0, SVG Export Plug-In . SVG Version: 2.1.0 Build 152)  -->
  <defs>
    <style>
      .st0 {
        fill: #aadce3;
      }
    </style>
  </defs>
  <path class="st0" d="M246.8,140.7l-.5-5.4c-6.7-11.1-16.2-23.9-21.1-35.8-3.9-9.4,3.5-14.9,11.6-8.8s17.8,18.1,24.3,24.9c5.2,5.6,10.3,11.4,15.4,17.2.3.3.5,2,1.6.9s3-10.2,3.3-11.6c4.6-24.1,4.6-51.4,13.4-74.7,1.8-4.6,3.3-6.5,8.7-5.9,4.2.5,6.1,4.1,6.6,8,1.2,10.3,0,26.8-.7,37.4-.9,12.6-3.5,25.2-4.2,37.8,1.5.2,2.4-.2,3.7-.8,3.7-1.7,11.1-9.1,15.1-12,7.9-5.6,19.1-12.7,27.9-16.5,4.3-1.8,9.8-4.8,13.8-.6,3.9,4-1.8,11.5-4.7,14.6-9.8,10.8-23.6,21.3-34.4,31.5-.7.6-3.4,3-2.8,3.8,17.1,4.9,35.2,7.1,51.6,14,7.2,6-1.8,11.4-8.3,11.6-20.5.5-41.3-2-61.7-2.7-.9,0-1.6-.4-2.4-.7-3,3.8,31.6,43.5,34,50.3.5,2.8-3.3,7-5.9,7.2-6,.4-25.1-14.9-29.7-19.5s-7.5-9.5-9.1-10.4-2.4-.8-3.9-.7c-1.7,14.1-5.3,28.7-10.4,42-1.4,3.7-3.5,11.2-8,11.5-7.3.4-7.5-6.9-7.2-12.1,1-15.3,6.9-32.9,7.6-48,.2-4-2.4-3.4-5.6-2.8-18.3,3.6-38.1,13-56.7,16.8-6.6,1.4-11.5-4.6-7.7-10.5,1.9-2.9,8.4-5.9,11.7-7.8,10.7-6,23.5-11.2,33.8-17.6s3.4-1.9,4.4-3.9c-10.5-2.6-21.4-3.7-31.9-6.2-4.6-1.1-15.2-2.5-14.6-9s2.8-6,4.5-6h38.5Z"/>
</svg>