<?xml version="1.0" encoding="UTF-8"?>
<svg id="Layer_1" xmlns="http://www.w3.org/2000/svg" version="1.1" viewBox="0 0 560 288">
  <!-- Generator: Adobe Illustrator 29.3.0, SVG Export Plug-In . SVG Version: 2.1.0 Build 146)  -->
  <defs>
    <style>
      .st0 {
        fill: #fbb03b;
      }
    </style>
  </defs>
  <path class="st0" d="M232.6,228.4c6.7,1.3,17.2,2.5,29.6.5,19.5-3.2,32.9-12.6,38.9-17.4,21.4-17.2,27.7-39.7,29.2-46.2,7.8-31.9-5.8-57.5-11-67.2-19.2-36.2-55.6-55.9-60.7-51.2-4.6,4.3,16.2,25.1,16.2,62.2,0,13.6-2,21.5-7.1,27.1-6.3,6.8-16.4,9.7-21.4,11.2-5.2,1.5-9.8,2.1-13,2.3-5.8,20.3-9,45.2-2.7,71.8.6,2.4,1.2,4.7,1.8,6.9Z"/>
  <path class="st0" d="M257.8,92.8c4,9.8,4.4,21.5-3.9,29.1s1.7,8.1,5,5c10-9.3,10.6-23.9,5.7-36-.7-1.8-2.3-3-4.4-2.5s-3.2,2.6-2.5,4.4h0Z"/>
  <path class="st0" d="M342.5,139c.6,3.8.9,8.9.9,13.3,0,7-1,13.9-2.7,20.6-3.6,13.8-10.7,26.6-20.6,37-3.3,3.4-7.2,6.9-10.6,9.5s-2.3,3.1-1.3,4.8,3.3,2.4,4.8,1.3c22.3-16.6,36.3-42.6,37.4-70.5.2-6-.2-12-1-17.9s-2.7-2.9-4.4-2.5-2.8,2.5-2.5,4.4h0Z"/>
  <path class="st0" d="M358.6,124.3c5.1,15.2,5,31.5-.3,46.7-1.5,4.3,5.3,6.2,6.8,1.9,5.6-16.2,5.7-34.1.3-50.4-1.4-4.3-8.3-2.5-6.8,1.9h0Z"/>
</svg>